<svg id="Layer_1" data-name="Layer 1" xmlns="http://www.w3.org/2000/svg" viewBox="0 0 446.96 151.91"><defs><style>.cls-1{fill:#2d2d2d;}.cls-2{fill:red;}.cls-3{fill:#d10000;}.cls-4{fill:#ff7300;}.cls-5{fill:#fff;}</style></defs><path class="cls-1" d="M137.82,75.37H98.76c-14-.25-17.94-12.89-18-19.54A3.3,3.3,0,0,1,84,52.47h0a3.3,3.3,0,0,1,3.3,3.24c0,1.33.63,12.86,11.5,13.05h39a3.31,3.31,0,0,1,0,6.61Z"/><path class="cls-1" d="M135.77,75.37a3.31,3.31,0,0,1,0-6.61h39.06c11.1-.19,11.43-12.51,11.44-13a3.3,3.3,0,1,1,6.6.11c-.1,6.65-4,19.29-18,19.54Z"/><path class="cls-1" d="M190.54,97.36H144a3.31,3.31,0,1,1,0-6.61h46.52c4.34,0,8.19-.14,11.47-1.88A16.9,16.9,0,0,0,208.39,83a17.84,17.84,0,0,0,2.76-8.71,3.3,3.3,0,1,1,6.6.18A24.17,24.17,0,0,1,214,86.55a23.4,23.4,0,0,1-8.87,8.16C200.49,97.15,195.58,97.36,190.54,97.36Z"/><path class="cls-1" d="M84.43,97.41c-6.62,0-13.68-.53-19.37-4.89a23.45,23.45,0,0,1-6.51-7.84,24,24,0,0,1-2.71-10.2,3.3,3.3,0,1,1,6.6-.17,17.73,17.73,0,0,0,2,7.36,16.9,16.9,0,0,0,4.66,5.61C73.87,91,80.8,90.86,87.51,90.77l2.95,0h39.12a3.31,3.31,0,0,1,0,6.61H90.46l-2.87,0C86.55,97.4,85.5,97.41,84.43,97.41Z"/><rect class="cls-2" x="98.6" y="72.07" width="76.38" height="21.98"/><path class="cls-1" d="M175,97.36H98.6a3.31,3.31,0,0,1-3.3-3.31v-22a3.31,3.31,0,0,1,3.3-3.31H175a3.31,3.31,0,0,1,3.3,3.31v22A3.31,3.31,0,0,1,175,97.36Zm-73.08-6.61h69.77V75.37H101.91Z"/><rect class="cls-3" x="75.41" y="94.05" width="122.76" height="21.98"/><path class="cls-1" d="M198.18,119.34H75.41a3.3,3.3,0,0,1-3.3-3.3v-22a3.3,3.3,0,0,1,3.3-3.3H198.18a3.3,3.3,0,0,1,3.3,3.3v22A3.3,3.3,0,0,1,198.18,119.34ZM78.72,112.73H194.87V97.36H78.72Z"/><rect class="cls-4" x="106.47" y="51.21" width="60.65" height="20.86"/><path class="cls-1" d="M167.12,75.37H106.47a3.3,3.3,0,0,1-3.3-3.3V51.21a3.31,3.31,0,0,1,3.3-3.31h60.65a3.31,3.31,0,0,1,3.3,3.31V72.07A3.3,3.3,0,0,1,167.12,75.37Zm-57.34-6.61h54V54.51h-54Z"/><path class="cls-4" d="M136.58,27.58A49.35,49.35,0,0,1,98.39,51.21H175.2A49.35,49.35,0,0,1,137,27.58"/><path class="cls-1" d="M175.2,54.51H98.39a3.31,3.31,0,0,1-.29-6.6A45.65,45.65,0,0,0,133.66,26a3.36,3.36,0,0,1,3.1-1.75A3.31,3.31,0,0,1,139.93,26a45.65,45.65,0,0,0,35.56,21.87,3.31,3.31,0,0,1-.29,6.6ZM120.27,47.9h33.05A53.13,53.13,0,0,1,136.8,33.3,53.31,53.31,0,0,1,120.27,47.9Z"/><path class="cls-5" d="M76.56,85c5.45-2.47,6.84-8.4,2.49-12.62A11.6,11.6,0,0,0,66.7,70.23c-3.48,1.51-6.46,5.61-7.74,9.06-3.44,9.33,2,18.8,10.22,23,9.28,4.73,20-1.15,25.37-9a23,23,0,0,0,4.16-14.93c-1-10.45-7.89-20.76-17.57-25A29.93,29.93,0,0,0,55,54.89C39.71,63.22,39.66,81.49,44.31,96.3c-.27-.87-8,2.11-8.49,2.39-11.61,6.09-9.51,25,4.42,25.78h90.83c5,0,10.09-2.18,12.21-7a11.63,11.63,0,0,0-4.4-14.31c-4.43-2.68-9.73-.58-13.7,2,3-8.07.31-17.38-7.39-21.81-5.42-3.12-12.22-3-17.09,1.1a17.18,17.18,0,0,0-5.87,14.48,15.87,15.87,0,0,0,1.68,5.6c2.51,4.87,9.7,6.62,13.85,2.72,3.89-3.66,3.35-9.78-2-11.63"/><path class="cls-1" d="M131.07,127.63h-91a15.21,15.21,0,0,1-14.53-12.38,17.6,17.6,0,0,1,8.81-19.37,44.28,44.28,0,0,1,5.92-2.21c-4.89-19-.07-34.32,13.21-41.56a33.24,33.24,0,0,1,28.93-1.65C92.86,55,100.68,66.09,101.86,78c.06.59.1,1.18.11,1.77a18.19,18.19,0,0,1,17.4.78,20.58,20.58,0,0,1,10.14,19c5-1.59,8.62-.52,11,.92a14.74,14.74,0,0,1,5.65,18.29C143.78,124.22,138,127.63,131.07,127.63ZM40.33,121.3h90.74c1.66,0,7.23-.37,9.31-5.11a8.53,8.53,0,0,0-3.14-10.33c-3.13-1.89-7.35,0-10.35,1.93A3.17,3.17,0,0,1,122.2,104c2.56-7,0-14.51-6-18-4.55-2.62-9.83-2.32-13.46.77a13.63,13.63,0,0,0-3.3,4.22c-.07.17-.16.33-.24.5a13.7,13.7,0,0,0-1.23,7A12.69,12.69,0,0,0,99.32,103a6.14,6.14,0,0,0,4.41,3,5.13,5.13,0,0,0,4.46-1.19,4.31,4.31,0,0,0,1.46-4,3.22,3.22,0,0,0-2.3-2.37,3.17,3.17,0,0,1,2.08-6,9.51,9.51,0,0,1,6.42,7,10.7,10.7,0,0,1-3.32,9.89,11.42,11.42,0,0,1-9.87,2.81,12.37,12.37,0,0,1-9-6.39,19.52,19.52,0,0,1-1.77-5.08c-6.61,5.62-15.83,8.48-24.18,4.24-8.85-4.5-16-15.46-11.75-26.9,1.48-4,5-8.93,9.44-10.88a14.75,14.75,0,0,1,15.82,2.75,10.68,10.68,0,0,1,3.39,9.55,11.26,11.26,0,0,1-6.78,8.23,3.17,3.17,0,0,1-2.61-5.78,5,5,0,0,0,3.15-3.54,4.43,4.43,0,0,0-1.56-3.91A8.39,8.39,0,0,0,68,73.13c-2.59,1.13-5,4.58-6,7.26-3,8,2.27,15.8,8.69,19.06,7.66,3.9,16.7-1.2,21.31-8a23.57,23.57,0,0,0,1.43-2.39c.16-.37.34-.73.52-1.09a18.44,18.44,0,0,0,1.68-9.35c-1-9.57-7.4-18.77-15.68-22.38a26.86,26.86,0,0,0-23.37,1.4c-16.65,9.08-11.24,31.11-9.18,37.67h0a3.17,3.17,0,0,1-3.8,4,53.36,53.36,0,0,0-6.3,2.15,11.29,11.29,0,0,0-5.51,12.38A9,9,0,0,0,40.33,121.3Z"/><path class="cls-5" d="M186.68,105.18c-2.41-1.09-3-3.71-1.1-5.56a5.11,5.11,0,0,1,5.46-.94,7.38,7.38,0,0,1,3.41,4c1.52,4.12-.88,8.3-4.51,10.15-4.1,2.08-8.84-.51-11.2-4a10.15,10.15,0,0,1-1.84-6.59,13.77,13.77,0,0,1,7.76-11,13.23,13.23,0,0,1,11.54.67c6.75,3.68,6.77,11.74,4.71,18.28.13-.38,3.52.93,3.75,1,5.13,2.69,4.2,11.05-1.95,11.38H162.62a5.64,5.64,0,0,1-5.39-3.09,5.14,5.14,0,0,1,1.94-6.32c2-1.18,4.3-.25,6.05.87a7.84,7.84,0,0,1,3.26-9.62,6.53,6.53,0,0,1,7.55.48,7.59,7.59,0,0,1,2.59,6.4,7.3,7.3,0,0,1-.74,2.46,4,4,0,0,1-6.12,1.21c-1.72-1.62-1.48-4.32.87-5.14"/><path class="cls-1" d="M155.36,120.35a7.16,7.16,0,0,1,2.76-8.88,6.09,6.09,0,0,1,4.55-.69,9.66,9.66,0,0,1,4.79-8.09,8.8,8.8,0,0,1,7.43-.74,15.77,15.77,0,0,1,9-12.58,15.3,15.3,0,0,1,13.32.75c6,3.27,8.28,10.08,6.3,18.47a17.42,17.42,0,0,1,2.14.85,8.42,8.42,0,0,1,4.22,9.25,7.43,7.43,0,0,1-7,6h-40.2A7.65,7.65,0,0,1,155.36,120.35Zm50.49-2.53a4.34,4.34,0,0,0-2.09-4.75c-.45-.19-1.86-.7-2.52-.87a2,2,0,0,1-2.27-2.62c1.12-3.55,3-12.21-3.75-15.88a11.16,11.16,0,0,0-9.75-.59,11.77,11.77,0,0,0-6.54,9.35,7.6,7.6,0,0,0,.68,3.8c.08.15.15.3.22.45a10,10,0,0,0,.6,1c1.9,2.81,5.64,4.81,8.58,3.31,2.59-1.31,4.7-4.43,3.53-7.62a5.41,5.41,0,0,0-2.32-2.84,3.08,3.08,0,0,0-3.22.53,1.34,1.34,0,0,0-.5,1.16,1.62,1.62,0,0,0,1,1.09,2,2,0,1,1-1.68,3.71,5.62,5.62,0,0,1-3.36-4.11,5.38,5.38,0,0,1,1.69-4.78,7.18,7.18,0,0,1,7.68-1.34,9.34,9.34,0,0,1,4.51,5.17c1.75,4.73-.62,10.18-5.5,12.66-3.61,1.84-7.56.87-10.58-1.33a10,10,0,0,1-.59,1.43,6.14,6.14,0,0,1-4.42,3.16,5.67,5.67,0,0,1-4.9-1.41,5.35,5.35,0,0,1-1.66-5A4.82,4.82,0,0,1,172,108a2,2,0,0,1,1.34,3.85c-.52.18-.58.48-.6.57a1.26,1.26,0,0,0,.46,1.15,1.62,1.62,0,0,0,1.42.36,2.08,2.08,0,0,0,1.49-1,5.21,5.21,0,0,0,.52-1.74,5.41,5.41,0,0,0-.46-2.71l-.15-.32a5.35,5.35,0,0,0-1.27-1.6,4.49,4.49,0,0,0-5.21-.28,5.85,5.85,0,0,0-2.37,7.16,2,2,0,0,1-3,2.42c-1.17-.75-2.79-1.51-3.9-.84a3.12,3.12,0,0,0-1.13,3.75c.77,1.74,2.89,1.88,3.53,1.88h40A3.36,3.36,0,0,0,205.85,117.82Zm-3.21-6.54a2.92,2.92,0,0,0,.22-.47A2.52,2.52,0,0,1,202.64,111.28Zm.22-.47Z"/><path class="cls-1" d="M255.43,70.47q4.47-11.7,3.95-19.44c-1.11.15-2.14.25-3.09.31s-1.87.09-2.73.09q-8.34,0-8.34-3.93a4.93,4.93,0,0,1,2.35-3.93A8.62,8.62,0,0,1,253,41.74q5.82,0,7.22,6.28,2.67-.29,5.39-.68t5.65-.84a96.65,96.65,0,0,1,16.4-1.58q11.51,0,18.09,3.76,7.69,4.53,7.69,12.21a17.25,17.25,0,0,1-2.21,8.21,27.15,27.15,0,0,1-6,7.47A53.72,53.72,0,0,1,293,84.31a11.71,11.71,0,0,1,.48,3.19,9.18,9.18,0,0,1-3,7q-3.09,3-8.57,3.07a10.24,10.24,0,0,1-5.22-1.29,5.62,5.62,0,0,1-2.89-3c-.08-.27,0-.42.25-.46a.32.32,0,0,1,.46.23A4.91,4.91,0,0,0,277,95.64a8.74,8.74,0,0,0,4.93,1.23c3.29,0,5.84-.89,7.67-2.55A8.23,8.23,0,0,0,292.33,88a11.8,11.8,0,0,0-.49-3.13,71.22,71.22,0,0,1-28.93,6q-9.75,0-15.11-2.46c-.38.63-.77,1.25-1.16,1.86l-1.19,1.84c-.12.21-.29.24-.52.11s-.23-.23-.11-.46c.74-1.16,1.49-2.42,2.24-3.75Q242.7,85.67,242.7,82q0-3.4,3.58-6.62A23.59,23.59,0,0,1,255.43,70.47ZM254,73.85A20.14,20.14,0,0,0,247.8,78a6.81,6.81,0,0,0-2.35,4.67,4.34,4.34,0,0,0,2.47,3.76q1.83-3.24,3.32-6.35T254,73.85ZM259,48.13q-1.29-5.33-5.73-5.33a6.64,6.64,0,0,0-3.86,1A2.79,2.79,0,0,0,248,46c0,1.43,1,2.23,3,2.41a31.67,31.67,0,0,0,3.34,0C255.65,48.47,257.19,48.34,259,48.13ZM248.69,86.84Q253,89,261.68,89a65.82,65.82,0,0,0,29-6.71A17.9,17.9,0,0,0,284.93,76a26.45,26.45,0,0,0-7.88-3.35,38.26,38.26,0,0,0-10-1.29c-1.05,0-2.08,0-3.08.12s-2,.21-2.85.36a37.6,37.6,0,0,0-1.77,4.63,14.17,14.17,0,0,0-.64,3.4,6.85,6.85,0,0,0,.83,3.7,2.87,2.87,0,0,0,2.64,1.66,3.48,3.48,0,0,0,.63,0c.51-.14.77,0,.77.45,0,.16-.15.27-.46.35a5.72,5.72,0,0,1-4.53-1.41,6.18,6.18,0,0,1-1.75-4.38,22.88,22.88,0,0,1,1.52-7.72c-.47.12-.95.25-1.42.39l-1.42.45q-1.39,3.41-3.09,6.78T248.69,86.84Zm13.62-17.61c.48,0,.95-.06,1.42-.08s.95,0,1.45,0a41.29,41.29,0,0,1,11.41,1.63,33.27,33.27,0,0,1,9,4A18.82,18.82,0,0,1,292,81.68a47.74,47.74,0,0,0,9.75-6.54,26,26,0,0,0,6-7.24,19.05,19.05,0,0,0,1.68-4,14.2,14.2,0,0,0,.59-4q0-6.16-5.82-9.8t-15-3.64a80.61,80.61,0,0,0-16.86,2.23q-3.27.78-6.15,1.29c-1.92.35-3.76.64-5.52.89q.52,7.68-3.87,19.18a19.24,19.24,0,0,1,2.64-.51,91.12,91.12,0,0,1,10.38-18.27A3.44,3.44,0,0,1,272.77,50c1,0,1.47.23,1.47.68a1,1,0,0,1-.38.66,21.13,21.13,0,0,0-1.95,2.35c-.8,1.09-1.77,2.52-2.89,4.28A100.61,100.61,0,0,0,262.31,69.23Z"/><path class="cls-1" d="M329.86,82.36q-6.66,7.06-11.41,6.89-5.4-.12-4.88-7.52.31-3.53,3.47-8.17a2.8,2.8,0,0,1,2.52-1c.94,0,1.41.26,1.41.77a1.78,1.78,0,0,1-.12.46c-.64,1.23-1.18,2.17-1.59,2.83l-.76,1.24a22.4,22.4,0,0,0-1,2.23,8,8,0,0,0-.51,1.82,13,13,0,0,0-.17,2q0,3.87,2.75,3.87,3.76,0,9.35-6a1.55,1.55,0,0,1,.95-.6.45.45,0,0,1,.28.43A1.27,1.27,0,0,1,329.86,82.36Zm-2.47-19.55c0,2-.86,3-2.58,3a2.09,2.09,0,0,1-1.56-.7,2.17,2.17,0,0,1-.67-1.53,2.45,2.45,0,0,1,1-2,3,3,0,0,1,1.69-.63C326.69,61,327.39,61.57,327.39,62.81Z"/><path class="cls-1" d="M345.54,73h.85a7.75,7.75,0,0,0,.93-.06,3.62,3.62,0,0,1,.73-.06h.9c.27-.51.66-1.24,1.18-2.17l1.92-3.53c.44-.78.95-1.63,1.53-2.52s1.25-1.91,2-3a4.26,4.26,0,0,1,3.18-1.18c1.13,0,1.69.3,1.69.89a.88.88,0,0,1-.17.43q-1.23,1.69-3.11,4.44c-1.25,1.84-2.72,4.07-4.4,6.71h9.17c.58.19.86.44.86.75,0,.59-.7,1-2.09,1.12-.25,0-1.12,0-2.6,0s-3.63,0-6.46.06c-1.91,3.61-2.87,6.55-2.87,8.8q0,3.84,3.27,3.84a7.17,7.17,0,0,0,3.53-1.06,21.22,21.22,0,0,0,2.68-1.92,31.78,31.78,0,0,0,2.91-2.78c.38-.4.69-.58.94-.54s.29.14.29.43a1.32,1.32,0,0,1-.29.74q-6.64,7-11.41,6.83a4.33,4.33,0,0,1-4.5-3.87c-.08-.41-.14-.8-.19-1.2a11.28,11.28,0,0,1-.07-1.16,20.37,20.37,0,0,1,2-8.11c-.86,0-1.48.06-1.85.06s-.48,0-.33,0c-.9-.11-1.39-.5-1.46-1.17S344.6,73,345.54,73Z"/><path class="cls-1" d="M378.11,82.36q-6.64,7.06-11.41,6.89-5.38-.12-4.87-7.52c.21-2.35,1.36-5.07,3.47-8.17a2.79,2.79,0,0,1,2.52-1c.94,0,1.4.26,1.4.77a1.63,1.63,0,0,1-.11.46c-.65,1.23-1.18,2.17-1.59,2.83s-.67,1.07-.76,1.24c-.42.82-.76,1.57-1,2.23a7.46,7.46,0,0,0-.5,1.82,11.83,11.83,0,0,0-.17,2c0,2.58.91,3.87,2.75,3.87q3.75,0,9.35-6c.38-.4.69-.6.94-.6a.46.46,0,0,1,.29.43A1.29,1.29,0,0,1,378.11,82.36Zm-.6-19.55q-.4.72-5.5,3.07c-3.37,1.57-5.19,2.29-5.48,2.18a.55.55,0,0,1-.17-.78c1-.78,2.12-1.61,3.34-2.49L373.58,62A4.16,4.16,0,0,1,376,61a2.11,2.11,0,0,1,1,.23A1,1,0,0,1,377.51,62.81Z"/><path class="cls-1" d="M396.26,82.36q-7.17,7.55-14,7.55-5.16,0-5.16-5.6c0-2.42,1.23-5.11,3.7-8,2.65-3.12,5.2-4.68,7.62-4.68,2,0,3,.9,3,2.7a5.93,5.93,0,0,1-.71,2.41,6.94,6.94,0,0,1-.59,1.07c-.2.3-.38.54-.53.73s-.34.29-.46.29c-.4,0-.44-.29-.11-.86a4.36,4.36,0,0,0,.63-2c0-.75-.45-1.12-1.35-1.12a5.94,5.94,0,0,0-3.59,1.41,12.49,12.49,0,0,0-2.1,2A14,14,0,0,0,380,82.91a7.09,7.09,0,0,0-.39,2.24q0,3.38,3.53,3.38a13.19,13.19,0,0,0,4.53-1,23.81,23.81,0,0,0,7.62-5.71c.39-.4.7-.6.95-.6a.46.46,0,0,1,.29.43A1.29,1.29,0,0,1,396.26,82.36Z"/><path class="cls-1" d="M421.49,82.36q-6.27,6.54-10.21,6.54c-1.1,0-1.95-.9-2.52-2.69-.19-.71-.38-1.42-.56-2.12s-.37-1.42-.56-2.13c-.44-1-1.05-1.57-1.83-1.57a4,4,0,0,0-2.41,1.11,22.79,22.79,0,0,0-3.93,4.22c-.3.44-.63.89-1,1.36l-1,1.33a3.39,3.39,0,0,1-1.77.72c-.9,0-1.35-.73-1.35-2.18a7.06,7.06,0,0,1,.28-1.86c.56-1.74,1.31-3.83,2.27-6.28s2.16-5.27,3.61-8.46q5.16-11.8,8.8-17.14c2-2.91,4.09-4.36,6.34-4.36,1.68,0,2.52,1,2.52,3a10.21,10.21,0,0,1-.51,3Q414.92,63.24,402,74.34a47,47,0,0,0-4.32,11.21l1.11-1.12,1.72-1.69,2.56-2.47q3.63-3.24,6-3.24c.9,0,1.5.82,1.8,2.47.1.78.19,1.55.26,2.29s.16,1.51.23,2.3c.27,1.64.89,2.46,1.87,2.46s2.38-.61,4.07-1.83a26.88,26.88,0,0,0,3.27-2.87,1.44,1.44,0,0,1,.94-.6c.23,0,.35.12.35.37A1,1,0,0,1,421.49,82.36Zm-5.76-27.81a7.35,7.35,0,0,0,.71-2.84c0-1-.33-1.46-1-1.46q-1.57,0-3.64,3.47-2.58,4.53-4.85,9.16t-4.24,9.56q1.86-1.86,3.71-4T410.05,64q2-2.75,3.48-5.1A24.62,24.62,0,0,0,415.73,54.55Z"/><path class="cls-1" d="M339.61,101.73V111a4.93,4.93,0,0,1-.56,0,3.16,3.16,0,0,0-1.12,0,4.93,4.93,0,0,1-.57,0v-9.23c-.5,0-1,0-1.46,0a13.17,13.17,0,0,0-1.33.15l.06-.39c0-.14,0-.23,0-.27s0-.19,0-.3l-.06-.33h7.74c0,.21-.06.42-.1.63a1.29,1.29,0,0,0,0,.33q0,.18.06.33c-.51-.07-1-.12-1.42-.15S340,101.73,339.61,101.73Z"/><path class="cls-1" d="M346.85,100.45v.45a1.07,1.07,0,0,1-.43.7,4.14,4.14,0,0,1-.78.57,1.31,1.31,0,0,0-.41.3c-.07.13-.11.22-.13.26L345,103v.2h-.38v-.61a3,3,0,0,1,.7-1,1.32,1.32,0,0,0,.33-.84,1.21,1.21,0,0,0-.13-.45.68.68,0,0,0-.29-.36.84.84,0,0,0-.53-.14.44.44,0,0,0-.22.13,1.56,1.56,0,0,0-.2.17,1.26,1.26,0,0,1,.26.24.46.46,0,0,1,.08.27.65.65,0,0,1-.23.48.79.79,0,0,1-.52.2.59.59,0,0,1-.45-.2.68.68,0,0,1-.18-.48l0-.16a1.66,1.66,0,0,1,.52-.63,2.31,2.31,0,0,1,2.57,0A1.35,1.35,0,0,1,346.85,100.45Zm-3,10.51v-7.29l.59,0,.46,0,.55,0,.47,0V111l-.38,0-.64-.06a4.72,4.72,0,0,0-.53,0A4.12,4.12,0,0,1,343.81,111Z"/><path class="cls-1" d="M347.91,111v-7.29l.47,0h.52l.54,0,.45,0v1.12a4.18,4.18,0,0,1,1-.9,2.44,2.44,0,0,1,1.29-.37,2.12,2.12,0,0,1,1.89.84,4,4,0,0,1,.48,2.19V111l-.37,0-.65-.06a4.72,4.72,0,0,0-.53,0,4.12,4.12,0,0,1-.52,0v-3.75a5,5,0,0,0-.21-1.73,1,1,0,0,0-1-.69c-.56,0-.93.33-1.13,1a7.09,7.09,0,0,0-.16,1.7V111a4.12,4.12,0,0,1-.52,0,4.72,4.72,0,0,0-.53,0l-.48,0Z"/><path class="cls-1" d="M358.47,99.54v5.15a4.05,4.05,0,0,1,1-.79,2.53,2.53,0,0,1,1.23-.38,2.33,2.33,0,0,1,1.74.7,1.66,1.66,0,0,1,.51.8,4.35,4.35,0,0,1,.12,1.12V111l-.37,0-.65-.06a4.72,4.72,0,0,0-.53,0,4.12,4.12,0,0,1-.52,0v-3.75a5,5,0,0,0-.21-1.73,1,1,0,0,0-1-.69,1.12,1.12,0,0,0-1.11.82,4.48,4.48,0,0,0-.21,1.54l0,.33V111a4.12,4.12,0,0,1-.52,0,4.72,4.72,0,0,0-.53,0l-.48,0-.54.06V99.54l.54,0,.48,0a4.25,4.25,0,0,0,.53,0A4.12,4.12,0,0,1,358.47,99.54Z"/><path class="cls-1" d="M369.66,111V100.64a5.49,5.49,0,0,1,.57,0,3.16,3.16,0,0,0,1.12,0,5.58,5.58,0,0,1,.56,0v4.08l1.32,0,1,0c.25,0,.68,0,1.3,0l1,0v-4.08a5.49,5.49,0,0,1,.57,0,3.16,3.16,0,0,0,1.12,0c.26,0,.44,0,.56,0V111a5.08,5.08,0,0,1-.56,0,3.16,3.16,0,0,0-1.12,0,4.93,4.93,0,0,1-.57,0v-5c-.25,0-.63,0-1.14,0s-.89,0-1.14,0-.65,0-1.16,0-.9,0-1.15,0v5a4.93,4.93,0,0,1-.56,0,3.16,3.16,0,0,0-1.12,0A4.93,4.93,0,0,1,369.66,111Z"/><path class="cls-1" d="M386.72,105.53v4.08q0,.75.63.75l.12,0v.33a6.74,6.74,0,0,1-.7.29,2,2,0,0,1-.65.14,1.44,1.44,0,0,1-.9-.3,1.74,1.74,0,0,1-.57-.82,2.13,2.13,0,0,1-.81.82,2.2,2.2,0,0,1-1.11.3,2.29,2.29,0,0,1-1.57-.52,1.85,1.85,0,0,1-.59-1.47,1.79,1.79,0,0,1,.66-1.53,6.31,6.31,0,0,1,2.1-.78c.23-.05.41-.11.54-.15a2.82,2.82,0,0,0,.54-.23.76.76,0,0,0,.18-.26.87.87,0,0,0,.06-.32,1.19,1.19,0,0,0-.45-.93,1.52,1.52,0,0,0-1-.38,2.4,2.4,0,0,0-1.25.36,1.25,1.25,0,0,0-.58.57h-.09l-.21-.9a3.54,3.54,0,0,1,1.29-.75,4.35,4.35,0,0,1,1.5-.28,3.77,3.77,0,0,1,1.89.44A1.72,1.72,0,0,1,386.72,105.53Zm-3.6-5.06,1.95,2.21h-.84l-2-1.2-.51-.35a.75.75,0,0,1-.27-.55.61.61,0,0,1,.19-.47.65.65,0,0,1,.47-.19,1.08,1.08,0,0,1,.54.13A2.11,2.11,0,0,1,383.12,100.47Zm1.53,8V107l-.72.25a2.88,2.88,0,0,0-.77.39,1.17,1.17,0,0,0-.39.51,2.54,2.54,0,0,0-.1.74,1.72,1.72,0,0,0,.19.85.67.67,0,0,0,.65.35,1,1,0,0,0,.9-.53A2.27,2.27,0,0,0,384.65,108.47Z"/><path class="cls-1" d="M397.39,101.73V111a4.93,4.93,0,0,1-.56,0,3.16,3.16,0,0,0-1.12,0,4.93,4.93,0,0,1-.57,0v-9.23c-.5,0-1,0-1.46,0a13.17,13.17,0,0,0-1.33.15l.06-.39a2.57,2.57,0,0,0,0-.27,1.69,1.69,0,0,0,0-.3l-.06-.33h7.74c0,.21-.06.42-.1.63a1.29,1.29,0,0,0,0,.33l.06.33c-.51-.07-1-.12-1.41-.15S397.82,101.73,397.39,101.73Z"/><path class="cls-1" d="M404.54,100.5h.54a3.43,3.43,0,0,1-.48,1.28,1.3,1.3,0,0,1-1.11.61,1.42,1.42,0,0,1-.52-.09l-.46-.23-.57-.27a1.49,1.49,0,0,0-.55-.17.49.49,0,0,0-.45.26.92.92,0,0,0-.15.47h-.54a2,2,0,0,1,.54-1.39,1.36,1.36,0,0,1,1-.47,1.92,1.92,0,0,1,.78.19l.45.22a2.14,2.14,0,0,0,.42.22.84.84,0,0,0,.36.08.56.56,0,0,0,.44-.22A3.47,3.47,0,0,0,404.54,100.5ZM401.6,111v-7.29l.59,0,.46,0,.55,0,.47,0V111l-.37,0-.65-.06a4.39,4.39,0,0,0-.52,0A4.25,4.25,0,0,1,401.6,111Z"/><path class="cls-1" d="M405.69,111v-7.29l.47,0h.52l.54,0,.45,0v1.12a4.18,4.18,0,0,1,1-.9,2.44,2.44,0,0,1,1.29-.37,2.12,2.12,0,0,1,1.89.84,4,4,0,0,1,.48,2.19V111l-.37,0-.65-.06a4.72,4.72,0,0,0-.53,0,4.12,4.12,0,0,1-.52,0v-3.75a5,5,0,0,0-.21-1.73,1,1,0,0,0-1-.69c-.56,0-.93.33-1.12,1a6.6,6.6,0,0,0-.16,1.7V111a4.12,4.12,0,0,1-.53,0,4.72,4.72,0,0,0-.53,0l-.48,0Z"/><path class="cls-1" d="M416.25,99.54v5.15a4.05,4.05,0,0,1,1-.79,2.53,2.53,0,0,1,1.23-.38,2.33,2.33,0,0,1,1.74.7,1.66,1.66,0,0,1,.51.8,4.35,4.35,0,0,1,.12,1.12V111l-.37,0-.65-.06a4.72,4.72,0,0,0-.53,0,4.12,4.12,0,0,1-.52,0v-3.75a5,5,0,0,0-.21-1.73,1,1,0,0,0-1-.69,1.12,1.12,0,0,0-1.11.82,4.52,4.52,0,0,0-.2,1.54l0,.33V111a4.12,4.12,0,0,1-.52,0,4.72,4.72,0,0,0-.53,0l-.48,0-.54.06V99.54l.54,0,.48,0a4.25,4.25,0,0,0,.53,0A4.12,4.12,0,0,1,416.25,99.54Z"/></svg>