<svg id="Layer_1" data-name="Layer 1" xmlns="http://www.w3.org/2000/svg" viewBox="0 0 390.23 123.65"><defs><style>.cls-1,.cls-5{fill:#fff;}.cls-2{fill:red;}.cls-3{fill:#d10000;}.cls-4{fill:#ff7300;}.cls-5{font-size:53.94px;font-family:UTMAptimaBold, UTM Aptima;}</style></defs><path class="cls-1" d="M122.09,61.24H83C69,61,65.1,48.35,65,41.7a3.3,3.3,0,0,1,3.25-3.36h0a3.3,3.3,0,0,1,3.3,3.24c0,1.33.63,12.86,11.5,13.05h39a3.31,3.31,0,1,1,0,6.61Z"/><path class="cls-1" d="M120.05,61.24a3.31,3.31,0,0,1,0-6.61h39.06c11.1-.19,11.43-12.51,11.44-13a3.3,3.3,0,1,1,6.6.11c-.1,6.65-4,19.29-18,19.54Z"/><path class="cls-1" d="M174.82,83.23H128.29a3.31,3.31,0,0,1,0-6.61h46.53c4.34,0,8.19-.14,11.46-1.88a16.85,16.85,0,0,0,6.39-5.85,17.84,17.84,0,0,0,2.76-8.71,3.3,3.3,0,1,1,6.6.17,24.18,24.18,0,0,1-3.78,12.07,23.4,23.4,0,0,1-8.87,8.16C184.77,83,179.86,83.23,174.82,83.23Z"/><path class="cls-1" d="M68.71,83.28c-6.62,0-13.68-.53-19.37-4.89a23.45,23.45,0,0,1-6.51-7.84,23.9,23.9,0,0,1-2.71-10.2,3.3,3.3,0,1,1,6.6-.17,17.73,17.73,0,0,0,2,7.36,16.9,16.9,0,0,0,4.66,5.61c4.78,3.67,11.71,3.58,18.41,3.49l3,0h39.11a3.31,3.31,0,1,1,0,6.61H74.74l-2.87,0C70.83,83.27,69.78,83.28,68.71,83.28Z"/><rect class="cls-2" x="82.88" y="57.94" width="76.38" height="21.98"/><path class="cls-1" d="M159.27,83.23H82.88a3.31,3.31,0,0,1-3.3-3.31v-22a3.31,3.31,0,0,1,3.3-3.31h76.39a3.31,3.31,0,0,1,3.3,3.31v22A3.31,3.31,0,0,1,159.27,83.23ZM86.19,76.62H156V61.24H86.19Z"/><rect class="cls-3" x="59.69" y="79.92" width="122.76" height="21.98"/><path class="cls-1" d="M182.46,105.21H59.69a3.3,3.3,0,0,1-3.3-3.3v-22a3.3,3.3,0,0,1,3.3-3.3H182.46a3.3,3.3,0,0,1,3.3,3.3v22A3.3,3.3,0,0,1,182.46,105.21ZM63,98.6H179.15V83.23H63Z"/><rect class="cls-4" x="90.75" y="37.08" width="60.65" height="20.86"/><path class="cls-1" d="M151.4,61.24H90.75a3.31,3.31,0,0,1-3.31-3.3V37.08a3.31,3.31,0,0,1,3.31-3.31H151.4a3.31,3.31,0,0,1,3.3,3.31V57.94A3.3,3.3,0,0,1,151.4,61.24ZM94.05,54.63h54V40.38h-54Z"/><path class="cls-4" d="M120.86,13.45A49.35,49.35,0,0,1,82.67,37.08h76.81a49.35,49.35,0,0,1-38.19-23.63"/><path class="cls-1" d="M159.48,40.38H82.67a3.31,3.31,0,0,1-.3-6.6,45.65,45.65,0,0,0,35.57-21.87,3.35,3.35,0,0,1,3.1-1.75,3.29,3.29,0,0,1,3.17,1.75,45.62,45.62,0,0,0,35.56,21.87,3.31,3.31,0,0,1-.29,6.6Zm-54.93-6.61H137.6a53.19,53.19,0,0,1-16.53-14.6A53.13,53.13,0,0,1,104.55,33.77Z"/><path class="cls-1" d="M60.84,70.83c5.45-2.47,6.84-8.4,2.49-12.62A11.59,11.59,0,0,0,51,56.1c-3.47,1.51-6.45,5.61-7.73,9.06-3.44,9.33,2,18.8,10.22,23,9.28,4.72,20-1.15,25.37-9A22.92,22.92,0,0,0,83,64.21c-1-10.45-7.89-20.76-17.57-25a30,30,0,0,0-26.15,1.52C24,49.09,23.93,67.36,28.59,82.17c-.27-.87-8,2.11-8.49,2.39-11.61,6.09-9.51,25,4.42,25.77h90.83c5,0,10.09-2.17,12.21-7A11.64,11.64,0,0,0,123.16,89c-4.43-2.68-9.73-.58-13.7,2,3-8.07.31-17.38-7.39-21.81-5.42-3.12-12.22-3-17.09,1.1a17.18,17.18,0,0,0-5.87,14.48,16.06,16.06,0,0,0,1.67,5.6c2.52,4.87,9.71,6.62,13.86,2.72,3.89-3.66,3.35-9.78-2-11.63"/><path class="cls-3" d="M115.35,113.5h-91A15.21,15.21,0,0,1,9.82,101.12a17.6,17.6,0,0,1,8.81-19.37,44.48,44.48,0,0,1,5.91-2.21c-4.88-19-.06-34.33,13.22-41.56a33.22,33.22,0,0,1,28.92-1.65C77.14,40.88,85,52,86.14,63.89c.06.59.09,1.18.11,1.77a18.19,18.19,0,0,1,17.4.78,20.58,20.58,0,0,1,10.14,19c5-1.59,8.62-.53,11,.92a14.74,14.74,0,0,1,5.66,18.29C128.05,110.09,122.26,113.5,115.35,113.5Zm-90.74-6.33h90.74c1.66,0,7.23-.37,9.31-5.11a8.53,8.53,0,0,0-3.14-10.33c-3.13-1.89-7.36,0-10.35,1.93a3.17,3.17,0,0,1-4.69-3.76c2.55-7,0-14.51-6-18-4.55-2.62-9.83-2.32-13.46.77a13.63,13.63,0,0,0-3.3,4.22l-.24.5a13.7,13.7,0,0,0-1.23,7,12.75,12.75,0,0,0,1.34,4.46A6.14,6.14,0,0,0,88,92a5.14,5.14,0,0,0,4.46-1.19,4.31,4.31,0,0,0,1.46-4,3.22,3.22,0,0,0-2.3-2.37,3.17,3.17,0,0,1,2.08-6,9.51,9.51,0,0,1,6.42,7,10.7,10.7,0,0,1-3.32,9.89,11.42,11.42,0,0,1-9.87,2.81,12.37,12.37,0,0,1-9-6.39,19.16,19.16,0,0,1-1.77-5.08C69.58,92.35,60.36,95.21,52,91c-8.85-4.51-16-15.46-11.75-26.91,1.48-4,5-8.92,9.44-10.87a14.75,14.75,0,0,1,15.82,2.75,10.7,10.7,0,0,1,3.39,9.55,11.23,11.23,0,0,1-6.78,8.22,3.17,3.17,0,1,1-2.61-5.77,5,5,0,0,0,3.15-3.54,4.43,4.43,0,0,0-1.56-3.91A8.39,8.39,0,0,0,52.24,59c-2.59,1.13-5,4.58-6,7.26-3,8,2.27,15.8,8.69,19.06,7.66,3.9,16.7-1.2,21.31-8A23.57,23.57,0,0,0,77.64,75c.16-.37.34-.73.52-1.09a18.44,18.44,0,0,0,1.68-9.35c-1-9.57-7.4-18.77-15.68-22.38a26.86,26.86,0,0,0-23.37,1.4c-16.65,9.08-11.24,31.11-9.18,37.67h0a3.17,3.17,0,0,1-3.8,4,53.36,53.36,0,0,0-6.3,2.15A11.29,11.29,0,0,0,16,99.77,9,9,0,0,0,24.61,107.17Z"/><path class="cls-1" d="M171,91.05c-2.41-1.09-3-3.71-1.1-5.56a5.09,5.09,0,0,1,5.45-.94,7.4,7.4,0,0,1,3.42,4c1.52,4.12-.88,8.3-4.51,10.15-4.1,2.08-8.84-.51-11.2-4a10.15,10.15,0,0,1-1.84-6.59,13.75,13.75,0,0,1,7.76-11,13.23,13.23,0,0,1,11.54.67c6.74,3.68,6.77,11.74,4.71,18.28.12-.38,3.52.93,3.75,1,5.13,2.69,4.2,11-1.95,11.38H146.9a5.64,5.64,0,0,1-5.39-3.09,5.14,5.14,0,0,1,1.94-6.32c2-1.18,4.3-.25,6.05.87a7.84,7.84,0,0,1,3.26-9.62,6.53,6.53,0,0,1,7.55.48,7.61,7.61,0,0,1,2.59,6.39,7.29,7.29,0,0,1-.74,2.47,4,4,0,0,1-6.12,1.21c-1.72-1.62-1.48-4.32.87-5.14"/><path class="cls-4" d="M139.64,106.22a7.16,7.16,0,0,1,2.75-8.88,6.13,6.13,0,0,1,4.56-.69,9.66,9.66,0,0,1,4.79-8.09,8.8,8.8,0,0,1,7.43-.74,15.76,15.76,0,0,1,9-12.58,15.32,15.32,0,0,1,13.33.75c6,3.27,8.28,10.08,6.3,18.47a17.42,17.42,0,0,1,2.14.85,8.42,8.42,0,0,1,4.22,9.25,7.43,7.43,0,0,1-7,6H146.9A7.65,7.65,0,0,1,139.64,106.22Zm50.48-2.53A4.32,4.32,0,0,0,188,98.94a24.4,24.4,0,0,0-2.52-.87,2,2,0,0,1-2.27-2.62c1.12-3.55,3-12.21-3.75-15.88a11.16,11.16,0,0,0-9.75-.59,11.77,11.77,0,0,0-6.54,9.35,7.6,7.6,0,0,0,.68,3.8c.08.15.15.3.22.45a9.94,9.94,0,0,0,.59,1c1.91,2.81,5.65,4.81,8.59,3.31,2.59-1.32,4.7-4.43,3.53-7.62a5.37,5.37,0,0,0-2.32-2.84,3.08,3.08,0,0,0-3.22.53,1.32,1.32,0,0,0-.5,1.16,1.62,1.62,0,0,0,1,1.09,2,2,0,1,1-1.68,3.71,5.61,5.61,0,0,1-3.36-4.11A5.35,5.35,0,0,1,168.45,84a7.18,7.18,0,0,1,7.68-1.34,9.34,9.34,0,0,1,4.51,5.17c1.75,4.73-.62,10.18-5.5,12.66-3.61,1.84-7.57.87-10.59-1.33a8.92,8.92,0,0,1-.58,1.43,6.16,6.16,0,0,1-4.42,3.16,5.7,5.7,0,0,1-4.91-1.41,5.37,5.37,0,0,1-1.65-5,4.82,4.82,0,0,1,3.25-3.58,2,2,0,0,1,1.34,3.85c-.52.18-.58.48-.6.57a1.24,1.24,0,0,0,.45,1.15,1.64,1.64,0,0,0,1.43.36,2.08,2.08,0,0,0,1.49-1,5.28,5.28,0,0,0,.52-1.74,5.41,5.41,0,0,0-.46-2.71l-.15-.32A5.52,5.52,0,0,0,159,92.36a4.52,4.52,0,0,0-5.22-.27,5.85,5.85,0,0,0-2.36,7.16,2,2,0,0,1-3,2.42c-1.17-.75-2.8-1.51-3.9-.84a3.1,3.1,0,0,0-1.13,3.75c.77,1.74,2.89,1.88,3.53,1.88h40A3.34,3.34,0,0,0,190.12,103.69Zm-3.2-6.54a2.24,2.24,0,0,0,.21-.47A2,2,0,0,1,186.92,97.15Zm.21-.47Z"/><path class="cls-1" d="M285.4,87.84V98.68a5,5,0,0,1-.65-.05c-.29,0-.51,0-.65,0s-.38,0-.67,0a5,5,0,0,1-.67.05V87.84c-.58,0-1.16,0-1.71.06s-1.08.1-1.57.18c0-.15,0-.31.07-.47s0-.26,0-.31a2.36,2.36,0,0,0,0-.35c0-.13-.05-.26-.07-.39h9.1l-.12.74a2.87,2.87,0,0,0,0,.39c0,.14.05.27.08.39-.61-.08-1.16-.14-1.66-.18S285.91,87.84,285.4,87.84Z"/><path class="cls-1" d="M293.91,86.34l0,.15,0,.37a1.28,1.28,0,0,1-.51.83,4.88,4.88,0,0,1-.91.67,1.49,1.49,0,0,0-.48.35,2.87,2.87,0,0,1-.16.3l-.06.31v.24h-.45v-.73a3.54,3.54,0,0,1,.82-1.23,1.56,1.56,0,0,0,.38-1,1.26,1.26,0,0,0-.14-.52.83.83,0,0,0-.34-.42,1,1,0,0,0-.63-.17.55.55,0,0,0-.26.15l-.24.21a1.5,1.5,0,0,1,.31.28.47.47,0,0,1,.1.32.7.7,0,0,1-.27.55.91.91,0,0,1-.61.24.67.67,0,0,1-.53-.23.79.79,0,0,1-.21-.56l0-.2a2.18,2.18,0,0,1,.61-.74,2.38,2.38,0,0,1,1.49-.45,2.41,2.41,0,0,1,1.54.45A1.61,1.61,0,0,1,293.91,86.34Zm-3.57,12.34V90.12l.69,0,.54,0,.65,0,.55,0v8.56l-.44,0c-.42-.05-.67-.07-.76-.07s-.35,0-.62,0A4.16,4.16,0,0,1,290.34,98.68Z"/><path class="cls-1" d="M295.16,98.68V90.12l.54.06h.62l.63,0,.53,0v1.31a4.87,4.87,0,0,1,1.21-1.06,3,3,0,0,1,1.51-.43,2.49,2.49,0,0,1,2.22,1,4.77,4.77,0,0,1,.56,2.58v5.17l-.44,0c-.41-.05-.67-.07-.76-.07s-.35,0-.62,0a4.16,4.16,0,0,1-.61.05v-4.4a5.84,5.84,0,0,0-.25-2,1.19,1.19,0,0,0-1.19-.81c-.66,0-1.1.39-1.33,1.16a8.27,8.27,0,0,0-.19,2v4.08a4.28,4.28,0,0,1-.62-.05c-.27,0-.47,0-.62,0a4,4,0,0,0-.56,0Z"/><path class="cls-1" d="M307.57,85.26v6.06a4.65,4.65,0,0,1,1.16-.93,2.86,2.86,0,0,1,1.44-.45,2.77,2.77,0,0,1,2,.82,1.94,1.94,0,0,1,.6.94A5.39,5.39,0,0,1,313,93v5.66l-.44,0c-.41-.05-.66-.07-.75-.07s-.35,0-.62,0a4.26,4.26,0,0,1-.61.05v-4.4a6.09,6.09,0,0,0-.25-2,1.21,1.21,0,0,0-1.2-.81,1.32,1.32,0,0,0-1.31,1,5.41,5.41,0,0,0-.24,1.81l0,.39v4.08a4.09,4.09,0,0,1-.62-.05c-.27,0-.48,0-.62,0a4.21,4.21,0,0,0-.57,0l-.63.06V85.26l.64.06.56.05a4.62,4.62,0,0,0,.62-.06A6,6,0,0,1,307.57,85.26Z"/><path class="cls-1" d="M320.7,98.68V86.56a5.23,5.23,0,0,1,.67.06,5.11,5.11,0,0,0,.68,0,4.84,4.84,0,0,0,.64,0,5.64,5.64,0,0,1,.65-.06v4.79l1.56,0,1.16,0c.3,0,.8,0,1.53,0l1.15,0V86.56a5.38,5.38,0,0,1,.67.06,5,5,0,0,0,.67,0,4.84,4.84,0,0,0,.65,0,5.46,5.46,0,0,1,.65-.06V98.68a5,5,0,0,1-.65-.05c-.29,0-.51,0-.65,0s-.38,0-.67,0a5,5,0,0,1-.67.05V92.77c-.29,0-.74,0-1.34-.06s-1,0-1.34,0-.76,0-1.36,0-1.05.06-1.36.06v5.91a5.07,5.07,0,0,1-.65-.05c-.29,0-.51,0-.64,0s-.38,0-.68,0A4.88,4.88,0,0,1,320.7,98.68Z"/><path class="cls-1" d="M340.75,92.31V97.1c0,.59.25.88.74.88l.14,0v.39a7,7,0,0,1-.82.34,2.25,2.25,0,0,1-.77.16,1.68,1.68,0,0,1-1.05-.35,2.06,2.06,0,0,1-.68-1,2.44,2.44,0,0,1-.95,1,2.61,2.61,0,0,1-1.3.35,2.72,2.72,0,0,1-1.84-.6,2.15,2.15,0,0,1-.7-1.73,2.1,2.1,0,0,1,.78-1.8,7.44,7.44,0,0,1,2.47-.91l.63-.18a2.32,2.32,0,0,0,.63-.28.73.73,0,0,0,.22-.3,1.15,1.15,0,0,0,.06-.37,1.39,1.39,0,0,0-.52-1.09,1.8,1.8,0,0,0-1.17-.46,2.72,2.72,0,0,0-1.46.43,1.39,1.39,0,0,0-.68.67h-.11l-.25-1.06a4.32,4.32,0,0,1,1.52-.88,5.19,5.19,0,0,1,1.76-.33,4.44,4.44,0,0,1,2.22.52A2,2,0,0,1,340.75,92.31Zm-4.23-6L338.8,89h-1l-2.34-1.41-.59-.42a.85.85,0,0,1-.32-.64.72.72,0,0,1,.22-.55.75.75,0,0,1,.56-.22,1.22,1.22,0,0,1,.63.15A2.3,2.3,0,0,1,336.52,86.36Zm1.79,9.4V94l-.84.29a3.33,3.33,0,0,0-.91.47,1.29,1.29,0,0,0-.45.6,2.62,2.62,0,0,0-.12.86,2.17,2.17,0,0,0,.22,1,.8.8,0,0,0,.76.41,1.13,1.13,0,0,0,1.06-.62A2.62,2.62,0,0,0,338.31,95.76Z"/><path class="cls-1" d="M353.28,87.84V98.68a4.84,4.84,0,0,1-.65-.05c-.3,0-.51,0-.65,0s-.38,0-.67,0a5.09,5.09,0,0,1-.67.05V87.84q-.88,0-1.71.06c-.56,0-1.08.1-1.57.18,0-.15,0-.31.07-.47s0-.26,0-.31a2.36,2.36,0,0,0,0-.35c0-.13-.05-.26-.07-.39h9.09c0,.25-.07.5-.11.74a1.84,1.84,0,0,0,0,.39c0,.14.05.27.07.39-.6-.08-1.15-.14-1.66-.18S353.78,87.84,353.28,87.84Z"/><path class="cls-1" d="M361.68,86.39h.63a4,4,0,0,1-.56,1.51,1.49,1.49,0,0,1-1.31.71,1.74,1.74,0,0,1-.61-.1l-.53-.27c-.3-.16-.53-.26-.67-.32a1.75,1.75,0,0,0-.65-.2.57.57,0,0,0-.53.31,1.16,1.16,0,0,0-.17.55h-.64a2.33,2.33,0,0,1,.64-1.63,1.62,1.62,0,0,1,1.23-.56,2.35,2.35,0,0,1,.92.22c.25.14.42.22.52.27a3.46,3.46,0,0,0,.5.26,1.14,1.14,0,0,0,.42.09.64.64,0,0,0,.51-.26A3.22,3.22,0,0,0,361.68,86.39Zm-3.46,12.29V90.12l.71,0,.53,0,.65,0,.55,0v8.56l-.44,0c-.41-.05-.66-.07-.76-.07s-.35,0-.62,0A4.18,4.18,0,0,1,358.22,98.68Z"/><path class="cls-1" d="M363,98.68V90.12l.55.06h.62l.62,0,.54,0v1.31a5,5,0,0,1,1.2-1.06,3,3,0,0,1,1.52-.43,2.49,2.49,0,0,1,2.22,1,4.78,4.78,0,0,1,.55,2.58v5.17l-.43,0c-.42-.05-.67-.07-.76-.07s-.35,0-.62,0a4.16,4.16,0,0,1-.61.05v-4.4a6.09,6.09,0,0,0-.25-2,1.21,1.21,0,0,0-1.2-.81c-.66,0-1.1.39-1.32,1.16a7.79,7.79,0,0,0-.19,2v4.08a4.18,4.18,0,0,1-.62-.05c-.27,0-.48,0-.62,0a4.21,4.21,0,0,0-.57,0Z"/><path class="cls-1" d="M375.44,85.26v6.06a4.84,4.84,0,0,1,1.16-.93,2.92,2.92,0,0,1,1.45-.45,2.77,2.77,0,0,1,2,.82,1.94,1.94,0,0,1,.6.94,5.39,5.39,0,0,1,.14,1.32v5.66l-.44,0c-.41-.05-.67-.07-.76-.07s-.35,0-.62,0a4.16,4.16,0,0,1-.61.05v-4.4a5.84,5.84,0,0,0-.25-2,1.19,1.19,0,0,0-1.19-.81,1.31,1.31,0,0,0-1.31,1,5.41,5.41,0,0,0-.24,1.81l0,.39v4.08a4.28,4.28,0,0,1-.62-.05c-.27,0-.48,0-.62,0a4.21,4.21,0,0,0-.57,0l-.62.06V85.26l.63.06.56.05a4.62,4.62,0,0,0,.62-.06C375.09,85.28,375.3,85.26,375.44,85.26Z"/><text class="cls-5" transform="translate(215.66 70.19)">Di tích</text></svg>